<svg width="190" height="35" viewBox="0 0 190 35" fill="none" xmlns="http://www.w3.org/2000/svg"><path d="M99.6277 25.3975C97.6377 23.3775 96.6377 20.8875 96.6377 17.9275C96.6377 14.9675 97.6377 12.4775 99.6277 10.4575C101.618 8.43749 104.058 7.42749 106.938 7.42749C109.818 7.42749 112.258 8.43749 114.248 10.4575C116.248 12.4775 117.238 14.9675 117.238 17.9275V19.0675C117.238 19.2075 117.128 19.3175 116.988 19.3175H100.788C101.108 20.9775 101.828 22.2875 102.968 23.2375C104.108 24.1875 105.428 24.6675 106.928 24.6675C108.778 24.6675 110.258 24.2075 111.368 23.2775C111.838 22.9275 112.248 22.5075 112.598 21.9975C112.648 21.9275 112.718 21.8875 112.798 21.8875H116.648C116.828 21.8875 116.948 22.0775 116.878 22.2375C116.348 23.3775 115.698 24.3575 114.938 25.1775C112.768 27.3475 110.098 28.4275 106.928 28.4275C104.058 28.4275 101.618 27.4175 99.6277 25.3975ZM100.998 15.9475H112.888C112.648 14.6275 112.018 13.5075 111.008 12.5775C109.988 11.6575 108.638 11.1875 106.948 11.1875C105.518 11.1875 104.258 11.6175 103.148 12.4775C102.028 13.3375 101.308 14.4975 100.998 15.9475Z" fill="#F5F5F5"></path><path d="M137.057 25.3975C135.057 23.3775 134.067 20.8875 134.067 17.9275C134.067 14.9675 135.067 12.4775 137.057 10.4575C139.047 8.43749 141.487 7.42749 144.367 7.42749C147.247 7.42749 149.687 8.43749 151.677 10.4575C153.667 12.4775 154.667 14.9675 154.667 17.9275V19.0675C154.667 19.2075 154.557 19.3175 154.417 19.3175H138.217C138.537 20.9775 139.257 22.2875 140.397 23.2375C141.537 24.1875 142.857 24.6675 144.357 24.6675C146.207 24.6675 147.687 24.2075 148.797 23.2775C149.267 22.9275 149.677 22.5075 150.027 21.9975C150.077 21.9275 150.147 21.8875 150.227 21.8875H154.077C154.257 21.8875 154.377 22.0775 154.307 22.2375C153.777 23.3775 153.127 24.3575 152.367 25.1775C150.197 27.3475 147.537 28.4275 144.357 28.4275C141.487 28.4275 139.047 27.4175 137.057 25.3975ZM138.417 15.9475H150.307C150.067 14.6275 149.437 13.5075 148.427 12.5775C147.407 11.6575 146.057 11.1875 144.367 11.1875C142.937 11.1875 141.667 11.6175 140.567 12.4775C139.457 13.3375 138.737 14.4975 138.417 15.9475Z" fill="#F5F5F5"></path><path d="M171.597 25.3975C169.557 23.3775 168.537 20.8875 168.537 17.9275C168.537 14.9675 169.557 12.4775 171.597 10.4575C173.637 8.43749 176.147 7.42749 179.137 7.42749C182.127 7.42749 184.637 8.43749 186.677 10.4575C188.717 12.4775 189.737 14.9675 189.737 17.9275C189.737 20.8875 188.717 23.3775 186.677 25.3975C184.637 27.4175 182.127 28.4275 179.137 28.4275C176.157 28.4275 173.637 27.4175 171.597 25.3975ZM174.657 13.0375C173.507 14.2675 172.937 15.8975 172.937 17.9275C172.937 19.9575 173.507 21.5975 174.657 22.8175C175.807 24.0475 177.297 24.6575 179.137 24.6575C180.977 24.6575 182.467 24.0475 183.617 22.8175C184.767 21.5875 185.337 19.9575 185.337 17.9275C185.337 15.8975 184.767 14.2575 183.617 13.0375C182.467 11.8075 180.977 11.1975 179.137 11.1975C177.297 11.1875 175.807 11.8075 174.657 13.0375Z" fill="#F5F5F5"></path><path d="M90.5675 7.99749L86.2475 21.5075L81.9275 7.99749C81.8975 7.89749 81.7975 7.82749 81.6875 7.82749H80.8875H77.6975H76.8975C76.7875 7.82749 76.6975 7.89749 76.6575 7.99749L72.4775 21.3575L68.3075 7.99749C68.2775 7.89749 68.1775 7.82749 68.0675 7.82749H64.4175C64.2475 7.82749 64.1275 7.98749 64.1775 8.14749L70.3375 27.8675C70.3675 27.9675 70.4675 28.0375 70.5775 28.0375H74.3875C74.4975 28.0375 74.5875 27.9675 74.6275 27.8675L79.3175 12.8775L84.1075 27.8675C84.1375 27.9675 84.2375 28.0375 84.3475 28.0375H88.1575C88.2675 28.0375 88.3575 27.9675 88.3975 27.8675L94.6975 8.14749C94.7475 7.98749 94.6275 7.82749 94.4575 7.82749H90.7975C90.6875 7.81749 90.5975 7.88749 90.5675 7.99749Z" fill="#F5F5F5"></path><path d="M162.387 23.0975V2.44749C162.387 2.30749 162.277 2.19749 162.137 2.19749H158.457C158.317 2.19749 158.207 2.30749 158.207 2.44749V24.4275C158.207 24.4975 158.237 24.5575 158.277 24.6075L161.697 28.0275C161.747 28.0775 161.807 28.0975 161.877 28.0975H167.847C167.987 28.0975 168.097 27.9875 168.097 27.8475V24.5775C168.097 24.4375 167.987 24.3275 167.847 24.3275H163.617C162.947 24.3375 162.387 23.7775 162.387 23.0975Z" fill="#F5F5F5"></path><path d="M125.777 23.3675V11.8375C125.777 11.6975 125.887 11.5875 126.027 11.5875H131.247C131.387 11.5875 131.497 11.4775 131.497 11.3375V8.06749C131.497 7.9275 131.387 7.81749 131.247 7.81749H126.027C125.887 7.81749 125.777 7.70749 125.777 7.56749V2.44749C125.777 2.30749 125.667 2.19749 125.527 2.19749H121.847C121.707 2.19749 121.597 2.30749 121.597 2.44749V7.56749C121.597 7.70749 121.487 7.81749 121.347 7.81749H119.907C119.767 7.81749 119.657 7.9275 119.657 8.06749V11.3375C119.657 11.4775 119.767 11.5875 119.907 11.5875H121.347C121.487 11.5875 121.597 11.6975 121.597 11.8375V24.4375C121.597 24.5075 121.627 24.5675 121.667 24.6175L125.087 28.0375C125.137 28.0875 125.197 28.1075 125.267 28.1075H131.237C131.377 28.1075 131.487 27.9975 131.487 27.8575V24.5875C131.487 24.4475 131.377 24.3375 131.237 24.3375H126.737C126.207 24.3375 125.777 23.8975 125.777 23.3675Z" fill="#F5F5F5"></path><path d="M18.0172 5.8075L34.3172 22.1075L44.5072 11.9175L38.4072 5.8075L43.9872 0.2175C44.2772 -0.0725 44.7472 -0.0725 45.0372 0.2175L56.2072 11.3875C56.4972 11.6775 56.4972 12.1475 56.2072 12.4375L34.8472 33.8075C34.5572 34.0975 34.0872 34.0975 33.7972 33.8075L11.9072 11.9175L18.0172 5.8075Z" fill="#009090"></path><path d="M38.4075 5.8075L22.1075 22.1075L11.9075 11.9175L18.0175 5.8075L12.4375 0.2175C12.1475 -0.0725 11.6775 -0.0725 11.3875 0.2175L0.2175 11.3975C-0.0725 11.6875 -0.0725 12.1575 0.2175 12.4475L21.5775 33.8075C21.8675 34.0975 22.3375 34.0975 22.6275 33.8075L44.5175 11.9175L38.4075 5.8075Z" fill="#00CAB9"></path></svg>